<?xml version="1.0" standalone="no"?>
<svg viewBox="0 0 200 200" xmlns="http://www.w3.org/2000/svg">
  <path fill="#F8FAFC" d="M40.9,-61.8C52.7,-56.1,61.7,-44.2,70,-30.6C78.4,-17,86.1,-1.8,83.3,11.4C80.6,24.6,67.3,35.7,56.2,48.8C45,62,36.1,77.3,23.3,82.4C10.5,87.6,-6.2,82.7,-21.2,76.4C-36.2,70.1,-49.5,62.3,-58,51C-66.5,39.8,-70.1,25.2,-69.4,11.7C-68.7,-1.8,-63.5,-14.3,-59.5,-28.8C-55.4,-43.4,-52.4,-60.1,-42.6,-66.7C-32.9,-73.4,-16.5,-69.9,-0.9,-68.5C14.6,-67,29.1,-67.5,40.9,-61.8Z" transform="translate(100 100)" />
</svg>
