<?xml version="1.0" standalone="no"?>
<svg viewBox="0 0 200 200" xmlns="http://www.w3.org/2000/svg">
  <path fill="#60A5FA" d="M41.7,-63.3C52.7,-57.9,59.3,-44,67.1,-29.8C74.9,-15.6,83.9,-1.1,83.2,12.8C82.4,26.6,71.9,39.9,59.5,48.4C47.2,56.8,33,60.5,18.9,64.8C4.8,69.1,-9.2,74,-20.4,70.3C-31.7,66.6,-40.2,54.4,-48.6,43C-57.1,31.7,-65.5,21.1,-68.9,8.9C-72.2,-3.4,-70.5,-17.4,-65,-29.7C-59.5,-42.1,-50.1,-52.8,-38.6,-58C-27.2,-63.2,-13.6,-63.1,0.9,-64.4C15.4,-65.8,30.7,-68.8,41.7,-63.3Z" transform="translate(100 100)" />
</svg>
