<svg xmlns="http://www.w3.org/2000/svg"
	viewBox="0 0 150.63584365096747 146.875">
	<defs id="SvgjsDefs2426"></defs>
	<g id="SvgjsG2427" featurekey="rootContainer"
		transform="matrix(1.4399509803921569,0,0,1.4399509803921569,0.016979598092125254,0)"
	>
		<path xmlns="http://www.w3.org/2000/svg"
			d="M50.8 102h5.8l1.8-.2 1.7-.3h1.7l1.9-.3 1.8-.4.9-.2.9-.3 1.7-.6 2-.8a54 54 0 0 0 15.3-9.4l1.4-1.2.7-.5.6-.4 1-.5.8-.5 1.5-1.2 1.5-1.5.8-1 .9-1.1a50.9 50.9 0 0 0 3.9-5.8 34.8 34.8 0 0 0 1.6-3.1l.2-.4.2-.4.3-.8.3-.9.2-.4v-.4l.4-1.2.2-.6v-.3h.1v-.2l.7-2.5c.2-.9.4-1.7.5-2.6a25.4 25.4 0 0 0 .2-2.6v-3.1c0-.3 0-1 .1-1.5v-2.1a21.3 21.3 0 0 0 .2-2.6v-2.6c0-.9-.1-1.1-.1-1.6l-.2-1.5c-.1-1-.4-2-.5-3s-.2-1-.3-1.4l-.3-1.4-.3-1.4v-1.7l-.4-1.4-.2-.7-.2-.7-.4-1.4-.5-1.4-.4-1-.5-1-1-2.1a40.7 40.7 0 0 1-1.8-4.1 3.6 3.6 0 0 0-.8-1.2l-.7-.6-.2-.3-.3-.5a25.7 25.7 0 0 0-1.6-2.3l-.8-1.1-.9-1.1-.4-.5-.2-.3-.2-.2h-.1l-.9-1-.5-.5-.5-.5-.9-1.1-1.1-1a47.9 47.9 0 0 0-3.8-3l-.1-.5-1.3-.9A29 29 0 0 0 72 .4h-3.1a.8.8 0 0 0-.6 1.2A3.9 3.9 0 0 0 69.9 3l-.6.3-.4-.2a.9.9 0 0 0 0-.3c-.1-.5-.2-.9-1.3-1.3L65.3.7l-.6-.2h-.6L62.8 0l-1.3 1.2A48.5 48.5 0 0 0 39 2.4 31.1 31.1 0 0 0 31.4 4h-.5l-.5.2-1 .4-1 .5-.9.6-1.8 1.5-.8.6-.7.7c-1 .9-1.9 1.9-2.8 2.8L20 12.8l-1.4 1.5-.5.5-.5.5-1.1 1a55.1 55.1 0 0 0-7 7l.2-.5.6-1.1.6-1.1.6-1.1.6-1.2.6-1.2 1.2-2.4.4-.8.3-.6a1 1 0 0 0 0-.8 3.7 3.7 0 0 1-.2-1.2 17.1 17.1 0 0 0-2.1 1.1l-1.5 1.1-.8.6-.7.7-.8 1-.5 1-.5 1-.2.5-.3.5-.3.6-.4.8-.4.8-.7 1.7-.5 1.3-.5 1.3v.7l-.2.6-.3 1.3v.2h-.4v.3l-.2.7-.3 1.4-.2.7-.2.7-.4 1.7-.4 1.9-.2.9v2.8l-.6 1.9a38.3 38.3 0 0 0-.1 4.1 52.7 52.7 0 0 0-.7 8.7 5.2 5.2 0 0 0 0 .7c.5 3 .8 6 1.5 9l.4 1.8.5 1.8a18.3 18.3 0 0 0 .6 1.7l.4.8.4.8.9 1.7.5.8.5.8.5.8.5.8L7.8 77c1.4 2 2.9 4 4.5 5.9a35.6 35.6 0 0 0 2.6 2.7l.7.6.3.3.4.3 1.5 1.1 1 1a34 34 0 0 0 8.2 6.2l1.4.7 1.5.7.7.3.8.3 1.5.6.9.4.8.4.8.4 1 .4 1.9.7 1.9.6 1.6.4 1.6.4 1.6.3h5.7z"></path>
	</g>
	<g id="SvgjsG2428" featurekey="nameFeature-0"
		transform="matrix(3.4662447928281273,0,0,3.4662447928281273,48.3862104851115,-14.485740238046489)"
		fill="#ffffff">
		<path
			d="M0.64 14.84 c-0.16 -0.68 -0.2 -1.4 -0.16 -2.12 l0.12 -0.48 c0.04 -0.12 0.12 -0.2 0.24 -0.24 l1.32 -0.12 c0.08 0 0.12 0 0.2 -0.04 c0.96 -0.16 1.88 -0.16 2.84 -0.16 l7.64 0 c0.56 0 1.16 0.08 1.72 0.16 c0.08 0 0.16 0.08 0.16 0.12 c0.12 0.72 0.2 1.44 0.16 2.16 c0 0.24 -0.08 0.44 -0.16 0.64 c-0.08 0.08 -0.16 0.16 -0.24 0.16 c-0.36 0 -0.72 0.04 -1.08 0.04 l-6.32 0 l-0.8 0 c-0.2 0 -0.32 0.12 -0.32 0.32 s-0.04 0.36 0 0.52 c0.08 0.44 0.04 0.88 0.04 1.32 l0 1.36 c0 0.4 0 0.8 0.04 1.16 c0.04 0.16 0.04 0.36 0.04 0.52 l0 3.44 c0 0.28 -0.04 0.56 -0.04 0.84 c-0.04 0.12 0 0.24 0 0.36 c0 0.08 0.08 0.16 0.16 0.12 c0.24 0 0.48 -0.04 0.72 -0.08 c0.56 -0.12 1.12 -0.12 1.72 -0.08 c0.4 0 0.76 -0.08 1.12 -0.24 c0.16 -0.08 0.32 -0.2 0.48 -0.28 c0.32 -0.2 0.6 -0.2 0.92 -0.08 l0.24 0.36 c0.32 0.28 0.44 0.68 0.56 1.08 c0.08 0.2 0.16 0.44 0.24 0.68 c0.04 0.16 0.04 0.32 0.08 0.48 c0 0.08 -0.04 0.12 -0.04 0.16 c-0.16 0.16 -0.28 0.32 -0.44 0.48 c-0.04 0 -0.08 0.04 -0.16 0.04 c-0.24 0.04 -0.44 0.16 -0.64 0.32 s-0.44 0.24 -0.72 0.32 c-0.16 0 -0.32 0.04 -0.48 0.12 c-0.28 0.16 -0.56 0.16 -0.84 0.12 c-0.12 -0.04 -0.24 -0.04 -0.36 -0.08 c-0.72 -0.24 -1.4 -0.12 -2.04 0.12 c-0.08 0.04 -0.16 0.08 -0.2 0.16 c-0.08 0.12 -0.12 0.24 -0.24 0.32 c-0.04 0.04 -0.08 0.16 -0.08 0.2 l0 0.88 l0 4.88 c0 0.44 0.04 0.92 0.08 1.36 c0.04 0.56 0.04 1.12 0 1.72 c-0.08 0.08 -0.24 0.16 -0.32 0.28 s-0.12 0.28 -0.16 0.4 c-0.36 0.2 -0.8 0.24 -1.16 0.36 c-0.36 0.08 -0.68 -0.08 -1 -0.24 c-0.08 -0.04 -0.16 -0.12 -0.2 -0.16 c-0.24 -0.2 -0.36 -0.4 -0.36 -0.68 l0 -0.68 c-0.04 -1.36 0 -2.72 -0.04 -4.08 c-0.04 -1.28 0 -2.56 0 -3.84 l0 -5 c0 -1.96 0.04 -3.88 0.08 -5.84 c0 -1.04 0.04 -2.12 0.08 -3.2 c0 -0.12 -0.08 -0.24 -0.2 -0.24 l-0.52 0 l-1.32 0 c-0.12 0 -0.24 0 -0.36 -0.12 z"></path>
	</g>
</svg>