<?xml version="1.0" encoding="utf-8"?>
<!-- Generator: Adobe Illustrator 27.5.0, SVG Export Plug-In . SVG Version: 6.00 Build 0)  -->
<svg version="1.1" xmlns="http://www.w3.org/2000/svg" xmlns:xlink="http://www.w3.org/1999/xlink"
	x="0px" y="0px"
	viewBox="0 0 750 500" style="enable-background:new 0 0 750 500;" xml:space="preserve">
<g id="BACKGROUND_1_">
	<rect style="fill:#F9F9F9;" width="750" height="500"/>
</g>
<g id="OBJECTS">
	<g>
		<path style="fill:#FFE582;" d="M129.432,430.372c-7.745-61.058,48.763-49.681,50.879-98.82
			c2.116-49.139-9.171-118.19,89.782-109.25c98.953,8.941,191.881,27.099,216.343,2.028c24.462-25.07,88.042-64.575,124.35-19.425
			c36.308,45.15,15.068,43.862,55.788,79.121s30.561,113.33-17.975,146.346H129.432z"/>
		<path style="fill:#60BEC8;" d="M200.864,430.372c0,0-19.189-29.065,12.792-53.145s59.447,20.317,107.607-14.674
			s74.623-57.416,122.155-43.005c47.533,14.411,41.889,47.144,67.474,56.174c25.585,9.03,56.437,18.248,51.922,54.65H200.864z"/>
		
			<path style="fill:none;stroke:#423F63;stroke-width:0.9511;stroke-linecap:round;stroke-linejoin:round;stroke-miterlimit:10;" d="
			M151.272,428.795c2.521-40.49-70.662-91.95-59.52-162.165c11.287-71.131,84.686-111.72,159.529-78.936
			c74.843,32.784,257.8,44.542,294.826-11.075c37.026-55.617,81.846-63.519,120.468-36.954c47.207,32.471,24.695,140.63,0,177.618
			c-24.336,36.451-44.342,66.775-41.021,111.12"/>
	</g>
	<g>
		<g>
			<linearGradient id="SVGID_1_" gradientUnits="userSpaceOnUse" x1="477.6668" y1="86.4296" x2="570.5663" y2="86.4296">
				<stop  offset="0" style="stop-color:#F27F97"/>
				<stop  offset="0.8665" style="stop-color:#F7B0C1"/>
			</linearGradient>
			<path style="fill:url(#SVGID_1_);" d="M477.912,122.081c-2.446-21.258,13.733-39.506,35.179-47.407
				c21.446-7.901,28.783-31.793,48.348-21.258c19.565,10.535,3.763,42.704-10.911,51.546L477.912,122.081z"/>
			
				<linearGradient id="SVGID_00000176728899788578243390000011193316053477380739_" gradientUnits="userSpaceOnUse" x1="478.7044" y1="109.9917" x2="472.6844" y2="65.3435">
				<stop  offset="0" style="stop-color:#008EA7"/>
				<stop  offset="0.8665" style="stop-color:#00B3C6"/>
			</linearGradient>
			<path style="fill:url(#SVGID_00000176728899788578243390000011193316053477380739_);" d="M462.988,112.111
				c-5.205-22.387-2.945-51.358,9.468-53.615c18.624-3.386,6.9,42.634,22.387,49.289L462.988,112.111z"/>
			
				<linearGradient id="SVGID_00000042013268430556737370000010411758488677206937_" gradientUnits="userSpaceOnUse" x1="298.7371" y1="110.0893" x2="323.8203" y2="46.3779">
				<stop  offset="0" style="stop-color:#008EA7"/>
				<stop  offset="0.8665" style="stop-color:#00B3C6"/>
			</linearGradient>
			<path style="fill:url(#SVGID_00000042013268430556737370000010411758488677206937_);" d="M264.579,115.246
				c-3.512-17.307-2.759-35.618,12.542-45.651c15.301-10.033,27.09-8.779,41.889-21.07c14.799-12.291,43.143,7.274,31.103,41.638
				C338.073,124.527,264.579,115.246,264.579,115.246z"/>
			
				<linearGradient id="SVGID_00000096762407969655340660000002031908311499271075_" gradientUnits="userSpaceOnUse" x1="173.062" y1="130.252" x2="234.4788" y2="130.252">
				<stop  offset="0" style="stop-color:#F27F97"/>
				<stop  offset="0.8665" style="stop-color:#F7B0C1"/>
			</linearGradient>
			<path style="fill:url(#SVGID_00000096762407969655340660000002031908311499271075_);" d="M219.993,188.677
				c-2.822-26.337-33.118-43.457-42.238-70.076s-4.981-45.62,12.702-46.749c17.684-1.129,17.684,35.555,44.021,39.13
				L219.993,188.677z"/>
		</g>
		<g>
			<path style="fill:#D3EADD;" d="M568.97,353.286H232.723c-11.083,0-20.067-8.984-20.067-20.067V121.768
				c0-11.082,8.984-20.067,20.067-20.067H568.97c11.082,0,20.067,8.984,20.067,20.067V333.22
				C589.037,344.302,580.053,353.286,568.97,353.286z"/>
			<path style="fill:#60BEC8;" d="M568.97,101.701H232.723c-11.082,0-20.067,8.984-20.067,20.067v4.515h376.381v-4.515
				C589.037,110.685,580.053,101.701,568.97,101.701z"/>
			<g>
				<path style="fill:#FFE582;" d="M536.732,113.992c0-2.009-1.628-3.637-3.637-3.637s-3.637,1.628-3.637,3.637
					c0,2.009,1.628,3.637,3.637,3.637S536.732,116.001,536.732,113.992z"/>
				<path style="fill:#F27F97;" d="M554.165,113.992c0-2.009-1.628-3.637-3.637-3.637s-3.637,1.628-3.637,3.637
					c0,2.009,1.628,3.637,3.637,3.637S554.165,116.001,554.165,113.992z"/>
				<path style="fill:#F9F9F9;" d="M571.597,113.992c0-2.009-1.628-3.637-3.637-3.637c-2.009,0-3.637,1.628-3.637,3.637
					c0,2.009,1.628,3.637,3.637,3.637C569.969,117.629,571.597,116.001,571.597,113.992z"/>
			</g>
			<g>
				<rect x="224.069" y="137.696" style="fill:#F9F9F9;" width="218.35" height="123.284"/>
				<g>
					<circle style="fill:#423F63;" cx="333.244" cy="199.338" r="18.965"/>
					<polygon style="fill:#F9F9F9;" points="339.992,199.338 329.87,193.493 329.87,205.182 					"/>
				</g>
				<g>
					<path style="fill:#F27F97;" d="M431.257,251.145H235.231c-0.525,0-0.951-0.425-0.951-0.951s0.426-0.951,0.951-0.951h196.025
						c0.526,0,0.951,0.425,0.951,0.951S431.782,251.145,431.257,251.145z"/>
					<path style="fill:#F27F97;" d="M260.189,250.194c0-1.87-1.516-3.386-3.386-3.386c-1.87,0-3.386,1.516-3.386,3.386
						c0,1.87,1.516,3.386,3.386,3.386C258.673,253.58,260.189,252.064,260.189,250.194z"/>
				</g>
			</g>
			<g>
				<rect x="224.069" y="270.135" style="fill:#F9F9F9;" width="218.35" height="71.26"/>
				<g>
					<rect x="235.482" y="281.548" style="fill:#60BEC8;" width="48.434" height="48.434"/>
					<rect x="294.075" y="281.548" style="fill:#423F63;" width="129.657" height="4.86"/>
					<rect x="294.075" y="293.419" style="fill:#423F63;" width="129.657" height="4.86"/>
					<rect x="360.898" y="325.122" style="fill:#60BEC8;" width="62.834" height="4.86"/>
					<rect x="294.075" y="305.291" style="fill:#423F63;" width="41.05" height="4.86"/>
				</g>
			</g>
			<g>
				<rect x="451.574" y="137.696" style="fill:#F9F9F9;" width="126.05" height="203.699"/>
				<g>
					<rect x="462.988" y="243.955" style="fill:#423F63;" width="103.224" height="5.236"/>
					<rect x="462.988" y="256.914" style="fill:#423F63;" width="103.224" height="5.236"/>
					<rect x="462.988" y="269.873" style="fill:#423F63;" width="103.224" height="5.236"/>
					<rect x="462.988" y="282.832" style="fill:#60BEC8;" width="59.133" height="5.236"/>
					<rect x="462.988" y="299.971" style="fill:#423F63;" width="103.224" height="5.236"/>
					<rect x="462.987" y="313.043" style="fill:#423F63;" width="22.449" height="5.236"/>
					<rect x="524.002" y="325.889" style="fill:#60BEC8;" width="42.209" height="5.236"/>
				</g>
			</g>
		</g>
		<g>
			
				<linearGradient id="SVGID_00000121271160779190621900000007767115333134350270_" gradientUnits="userSpaceOnUse" x1="187.9472" y1="248.6924" x2="222.9383" y2="272.0198">
				<stop  offset="0" style="stop-color:#60BEC8"/>
				<stop  offset="0.8665" style="stop-color:#86DCE0"/>
			</linearGradient>
			<path style="fill:url(#SVGID_00000121271160779190621900000007767115333134350270_);" d="M212.656,239.283v20.819
				c0,0,14.924-16.334,24.958-5.345c10.033,10.989-4.891,34.066-31.605,30.93C179.296,282.551,193.719,239.785,212.656,239.283z"/>
			
				<linearGradient id="SVGID_00000003080504583109207110000015203590033235581624_" gradientUnits="userSpaceOnUse" x1="337.4455" y1="98.9078" x2="413.6444" y2="98.9078">
				<stop  offset="0" style="stop-color:#F27F97"/>
				<stop  offset="0.8665" style="stop-color:#F7B0C1"/>
			</linearGradient>
			<path style="fill:url(#SVGID_00000003080504583109207110000015203590033235581624_);" d="M337.445,101.701
				c0,0,8.779-29.9,38.377-29.875c29.598,0.026,44.272,41.915,35.117,50.945s-23.954-1.881-26.714-21.07H337.445z"/>
		</g>
	</g>
	<g>
		<g>
			<path style="fill:#423F63;" d="M380.146,321.649c-10.065,0.47-33.862,6.114-38.377-11.852
				c-4.515-17.966,7.619-17.527,16.555-26.588c8.936-9.061,12.322-21.76,27.372-21.289c15.05,0.47,17.778,19.441,16.367,30.461
				l-0.564,5c0,0,10.864,6.114,8.983,14.862c-1.881,8.748-11.32,11.911-18.57,10.612L380.146,321.649z"/>
			<path style="fill:#F05757;" d="M379.707,398.767c0,0-88.795-26.337-96.57,2.508c-7.776,28.846,26.086,29.096,42.14,29.096
				c16.053,0,59.197,0,59.197,0L379.707,398.767z"/>
			<path style="fill:#F05757;" d="M379.707,398.767c20.129-6.208,54.242-21.728,72.867-15.332
				c18.624,6.396,13.733,29.159,2.446,36.12c-11.288,6.961-29.159,10.817-53.804,10.817h-29.912L379.707,398.767z"/>
			<g>
				<path style="fill:#83D6D6;" d="M419.464,330.855c-6.41-7.138-14.204-11.193-22.591-13.253l0,0l-19.455,4.223l-13.999-4.541l0,0
					c-2.621,0.4-5.206,0.856-7.729,1.343c-21.446,4.139-43.645,30.1-44.774,50.794c-1.129,20.694,31.605,25.773,61.329,26.911
					c0,0-0.188-0.95,39.882-4.336C452.198,388.609,436.019,349.291,419.464,330.855z"/>
				<path style="fill:#F2A887;" d="M363.419,317.284c2.369,3.455,7.514,8.95,16.539,9.526c8.589,0.548,14.097-5.134,16.915-9.208
					C386.147,314.966,374.45,315.602,363.419,317.284z"/>
			</g>
			<g>
				<path style="fill:#F2A887;" d="M374.022,323.248l1.044-21.634c0,0-7.713,0.972-8.591-5.048c-0.878-6.02,3.743-7.023,7.546-5.895
					c3.804,1.129,13.085-6.459,17.662-15.489c0,0,11.476,4.389,11.162,17.809c-0.313,13.419-14.36,11.413-14.36,11.413L388.529,323
					L374.022,323.248z"/>
				
					<linearGradient id="SVGID_00000047762264694746183840000013572598839245980350_" gradientUnits="userSpaceOnUse" x1="390.0067" y1="303.448" x2="383.4224" y2="308.3392">
					<stop  offset="0" style="stop-color:#000000"/>
					<stop  offset="0.8665" style="stop-color:#000000;stop-opacity:0"/>
				</linearGradient>
				<path style="opacity:0.45;fill:url(#SVGID_00000047762264694746183840000013572598839245980350_);" d="M388.487,304.404
					c-5.565-0.674-6.976-1.944-6.976-1.944s-0.195,7.234,6.993,9.403L388.487,304.404z"/>
				<g>
					
						<path style="fill:none;stroke:#423F63;stroke-width:0.4755;stroke-linecap:round;stroke-linejoin:round;stroke-miterlimit:10;" d="
						M369.455,294.183c0,0,2.226,0.847,4.829-0.188"/>
					
						<path style="fill:none;stroke:#423F63;stroke-width:0.4755;stroke-linecap:round;stroke-linejoin:round;stroke-miterlimit:10;" d="
						M372.559,297.82c0,0-1.19-1.386-0.94-3.311"/>
				</g>
				<g>
					<path style="fill:#EF8C89;" d="M391.911,298.42c0-2.771-2.246-5.017-5.017-5.017c-2.771,0-5.017,2.246-5.017,5.017
						c0,2.771,2.246,5.017,5.017,5.017C389.665,303.436,391.911,301.19,391.911,298.42z"/>
					<path style="fill:#EF8C89;" d="M399.179,294.252c0,1.833,0.993,3.419,2.46,4.295c0.703-1.471,1.154-3.289,1.207-5.555
						c0.029-1.239-0.044-2.4-0.197-3.488C400.641,290.159,399.179,292.025,399.179,294.252z"/>
				</g>
				
					<polyline style="fill:none;stroke:#423F63;stroke-width:0.4755;stroke-linecap:round;stroke-linejoin:round;stroke-miterlimit:10;" points="
					393.002,284.369 396.451,285.937 394.099,288.508 				"/>
				<g>
					
						<path style="fill:none;stroke:#423F63;stroke-width:0.4755;stroke-linecap:round;stroke-linejoin:round;stroke-miterlimit:10;" d="
						M384.097,288.884c0,0,0.784-3.857,4.013-2.069"/>
					
						<path style="fill:none;stroke:#423F63;stroke-width:0.4755;stroke-linecap:round;stroke-linejoin:round;stroke-miterlimit:10;" d="
						M395.102,283.209c0,0,0.812-2.994,3.167-1.442"/>
				</g>
			</g>
		</g>
		<g>
			<rect x="331.234" y="366.786" style="fill:#008EA7;" width="86.934" height="58.319"/>
			<rect x="331.234" y="425.105" style="fill:#83D6D6;" width="86.934" height="5.267"/>
		</g>
	</g>
	<g>
		<g>
			<rect x="57.325" y="113.101" style="fill:#60BEC8;" width="80.141" height="46.655"/>
			<g>
				<rect x="73.128" y="122.601" style="fill:#423F63;" width="56.305" height="3.264"/>
				<rect x="65.979" y="134.307" style="fill:#423F63;" width="63.454" height="3.264"/>
				<rect x="65.979" y="146.013" style="fill:#D3EADD;" width="63.454" height="3.264"/>
				<path style="fill:#423F63;" d="M65.979,126.578c-0.261,0-0.514-0.145-0.639-0.394c-0.176-0.352-0.033-0.781,0.319-0.957
					l1.988-0.994l-1.988-0.994c-0.352-0.176-0.495-0.605-0.319-0.957c0.176-0.353,0.606-0.494,0.957-0.319l3.264,1.632
					c0.242,0.121,0.394,0.368,0.394,0.638s-0.153,0.517-0.394,0.638l-3.264,1.632C66.195,126.554,66.087,126.578,65.979,126.578z"/>
			</g>
		</g>
		<g>
			<g>
				<path style="fill:#D37A57;" d="M98.587,170.541c0,0,4.515-3.48,5.362-6.427l2.446-4.358h-2.759c0,0,1.129-8.497,0.188-8.654
					c-0.941-0.157-2.79,8.34-2.79,8.34s1.223-9.876-0.188-10.159c-1.411-0.282-2.508,9.845-2.508,9.845s0.314-8.905-1.191-8.967
					c-1.505-0.063-1.568,9.03-1.568,9.03s-1.38-5.142-2.477-5.299s0,5.707,0,5.707s-2.665,5.55-1.035,10.629
					c0,0-12.479,43.206-1.568,58.13c4.404,6.024,13.344,6.039,22.441,3.917l2.266-13.323l-5.447-12.209
					c-6.2,3.071-10.23,5.499-10.23,5.499L98.587,170.541z"/>
				<path style="fill:#F05757;" d="M112.939,232.275c13.441-3.136,27.223-10.94,27.223-10.94l10.849-27.069
					c-14,0.224-30.747,7.274-41.253,12.477L112.939,232.275z"/>
			</g>
			<g>
				<path style="fill:#D37A57;" d="M166.617,327.478l-31.256-33.402l-31.152,36.639c0.793,38.765,5.907,74.657,7.955,87.648h0
					l3.386,3.732l5.298-3.385c-0.757-23.905,4.781-74.592,13.295-114.349c0,0,7.807,57.773,41.291,110.341l6.994,0.057l1.988-6.753
					C179.606,392.875,171.511,363.917,166.617,327.478z"/>
				
					<linearGradient id="SVGID_00000132806015225747440840000008822827857647041158_" gradientUnits="userSpaceOnUse" x1="135.6907" y1="311.8458" x2="137.2005" y2="351.6672">
					<stop  offset="0" style="stop-color:#000000"/>
					<stop  offset="0.8665" style="stop-color:#000000;stop-opacity:0"/>
				</linearGradient>
				<path style="opacity:0.45;fill:url(#SVGID_00000132806015225747440840000008822827857647041158_);" d="M166.617,327.478
					l-31.256-33.402l-31.152,36.639c0.105,5.147,0.289,10.241,0.529,15.24c7.155,1.265,14.567,1.88,21.772,2.057
					c2.096-14.818,4.686-29.89,7.633-43.652c0,0,2.448,18.1,10.472,43.254c10.482-0.689,19.333-2.033,24.59-3.138
					C168.277,339.021,167.405,333.348,166.617,327.478z"/>
				<path style="fill:#423F63;" d="M113.01,423.506l-11.476,6.867h19.847c0,0-0.303-4.375-0.534-11.663l-8.684-0.347
					C112.686,421.677,113.01,423.506,113.01,423.506z"/>
				<path style="fill:#423F63;" d="M184.416,408.005l-8.982,6.696c0.873,1.371,1.759,2.739,2.667,4.102l-5.832,11.57l16.085-10.817
					C188.354,419.555,186.782,415.449,184.416,408.005z"/>
			</g>
			<path style="fill:#423F63;" d="M162.487,267.363l-27.005-2.383l-27.005,0.122h0c-3.762,20.311-4.722,43.432-4.268,65.613
				c33.069,8.323,62.405-3.226,62.405-3.226s0.002-0.009,0.003-0.011C164.145,309.075,162.487,288.772,162.487,267.363z"/>
			<g>
				<path style="fill:#F05757;" d="M162.487,267.461c0-0.033,0-0.065,0-0.098c0-84.656-10.786-72.491-10.786-72.491
					c-11.538-1.505-30.601,4.201-43.018,69.104c-0.071,0.372-0.137,0.751-0.206,1.126
					C117.919,267.863,141.017,273.236,162.487,267.461z"/>
				
					<linearGradient id="SVGID_00000098201583047243516600000012501675098403174273_" gradientUnits="userSpaceOnUse" x1="153.0797" y1="240.5499" x2="131.6335" y2="250.2069">
					<stop  offset="0" style="stop-color:#000000"/>
					<stop  offset="0.8665" style="stop-color:#000000;stop-opacity:0"/>
				</linearGradient>
				<path style="opacity:0.45;fill:url(#SVGID_00000098201583047243516600000012501675098403174273_);" d="M147.697,269.833
					c4.894-0.32,9.884-1.052,14.79-2.372c0-0.033,0-0.065,0-0.098c0-5.615-0.049-10.792-0.137-15.586l-36.72-30.013
					C126.863,243.058,137.12,255.529,147.697,269.833z"/>
				
					<linearGradient id="SVGID_00000018955952170289893330000001502520546325037757_" gradientUnits="userSpaceOnUse" x1="162.4311" y1="224.0185" x2="146.6287" y2="216.7757">
					<stop  offset="0" style="stop-color:#000000"/>
					<stop  offset="0.8665" style="stop-color:#000000;stop-opacity:0"/>
				</linearGradient>
				<path style="opacity:0.45;fill:url(#SVGID_00000018955952170289893330000001502520546325037757_);" d="M156.08,203.808v-4.703
					c0,0-9.312,14.486-11.57,30.476c-2.258,15.991,13.357,8.466,13.357,8.466L156.08,203.808z"/>
			</g>
			<g>
				<g>
					
						<rect x="122.107" y="185.273" transform="matrix(0.9882 -0.1535 0.1535 0.9882 -28.2515 21.2667)" style="fill:#423F63;" width="3.01" height="16.674"/>
					
						<rect x="121.336" y="182.544" transform="matrix(0.9881 -0.1535 0.1535 0.9881 -26.8955 20.9534)" style="fill:#423F63;" width="1.756" height="4.132"/>
					<path style="fill:#423F63;" d="M129.937,172.641c-0.803-5.168-5.643-8.706-10.81-7.903c-5.168,0.803-8.706,5.643-7.903,10.81
						c0.803,5.168,5.643,8.706,10.81,7.903S130.74,177.809,129.937,172.641z M121.84,182.202c-4.471,0.695-8.673-2.378-9.368-6.848
						c-0.695-4.471,2.378-8.673,6.848-9.368c4.471-0.695,8.673,2.378,9.368,6.848C129.383,177.306,126.31,181.508,121.84,182.202z"
						/>
				</g>
				<path style="fill:#D37A57;" d="M123.326,202.322c1.065-3,4.263-7.076,3.699-9.02c-0.564-1.944-3.135-2.457-4.39-1.197
					C121.381,193.365,123.326,202.322,123.326,202.322z"/>
				<path style="fill:#D37A57;" d="M178.729,234.114l-8.467-1.839l-14.159-0.792l0,0l0.739,5.403l-32.137-37.029
					c0,0,0.156-3.418,0.156-6.428s-4.703-5.079-7.525-2.012c-2.822,3.067,1.254,13.864,1.254,13.864s17.056,46.529,35.116,52.173
					C169.423,262.366,178.201,253.122,178.729,234.114L178.729,234.114z"/>
				<path style="fill:#F05757;" d="M151.011,194.266l5.092,37.218c4.268,0.973,13.366,2.743,22.626,2.631
					c0.079-2.836-0.022-5.885-0.315-9.142C176.157,199.889,159.665,194.041,151.011,194.266z"/>
			</g>
			<g>
				<path style="fill:#F05757;" d="M145.598,166.612c0,0-7.577-13.137,6.276-21.979c13.853-8.842,32.024,1.595,34.265,19.054
					c2.257,17.59-14.862,27.913-29.253,18.962l-10.812-16.037"/>
				<path style="fill:#D37A57;" d="M160.366,173.275c-2.493,1.505-3.057,3.245-4.28,2.493c-1.223-0.752,3.48-7.901,1.787-8.983
					c-1.693-1.082-3.48,2.775-5.456,0.894c-1.975-1.881,0.235-3.951-1.599-4.703c-1.834-0.753-5.079-1.223-5.079-1.223
					s-8.23,7.305-6.976,15.269c0.596,3.787,4.723,4.89,7.573,6.164l-1.566,14.299c1.652,0.846,5.247,2.095,9.965,0.432l0.927-14.624
					c0,0,6.537,2.869,8.513-2.869C166.151,174.686,162.859,171.77,160.366,173.275z"/>
				
					<linearGradient id="SVGID_00000082345434381238939550000007777033246057436545_" gradientUnits="userSpaceOnUse" x1="147.2415" y1="182.1498" x2="149.1541" y2="186.2258">
					<stop  offset="0" style="stop-color:#000000"/>
					<stop  offset="0.8665" style="stop-color:#000000;stop-opacity:0"/>
				</linearGradient>
				<path style="opacity:0.45;fill:url(#SVGID_00000082345434381238939550000007777033246057436545_);" d="M151.9,184.265
					c0,0-2.853-0.251-5.564-1.079l-0.43,3.932C148.856,186.14,151.9,184.265,151.9,184.265z"/>
				
					<path style="fill:none;stroke:#423F63;stroke-width:0.4755;stroke-linecap:round;stroke-linejoin:round;stroke-miterlimit:10;" d="
					M146.382,168.086l-3.261,1.63c0,0,0.157,1.097,1.913,2.226"/>
				<g>
					<path style="fill:#423F63;" d="M151.117,171.551c0,0.407-0.155,0.737-0.345,0.737c-0.19,0-0.345-0.33-0.345-0.737
						c0-0.407,0.154-0.737,0.345-0.737C150.962,170.814,151.117,171.144,151.117,171.551z"/>
					<path style="fill:#423F63;" d="M143.278,167.349c0,0.407-0.154,0.737-0.345,0.737c-0.19,0-0.345-0.33-0.345-0.737
						c0-0.407,0.154-0.737,0.345-0.737C143.124,166.612,143.278,166.942,143.278,167.349z"/>
				</g>
				<g>
					<path style="fill:#EA9081;" d="M151.135,178.59c0-1.833-1.486-3.319-3.319-3.319c-1.833,0-3.319,1.486-3.319,3.319
						c0,1.833,1.486,3.319,3.319,3.319C149.648,181.91,151.135,180.424,151.135,178.59z"/>
					<path style="fill:#EA9081;" d="M139.334,171.249c-0.602,1.813-0.886,3.772-0.571,5.773c0.018,0.112,0.048,0.215,0.072,0.322
						c1.134-0.629,1.911-1.824,1.911-3.213C140.746,172.957,140.188,171.924,139.334,171.249z"/>
				</g>
				<g>
					
						<path style="fill:none;stroke:#423F63;stroke-width:0.4755;stroke-linecap:round;stroke-linejoin:round;stroke-miterlimit:10;" d="
						M159.472,176.238c0,0,1.991-0.063,3.12,1.536"/>
					
						<path style="fill:none;stroke:#423F63;stroke-width:0.4755;stroke-linecap:round;stroke-linejoin:round;stroke-miterlimit:10;" d="
						M159.143,179.499c0,0,1.469-0.523,2.036-2.88"/>
				</g>
			</g>
			<g>
				
					<path style="fill:none;stroke:#F9F9F9;stroke-width:0.919;stroke-linecap:round;stroke-linejoin:round;stroke-miterlimit:10;" d="
					M109.436,269.833c0,0,26.733,9.073,51.044,3.299"/>
				
					<path style="fill:none;stroke:#F9F9F9;stroke-width:0.919;stroke-linecap:round;stroke-linejoin:round;stroke-miterlimit:10;" d="
					M155.087,271c0,0,2.257,33.737,5.393,56.061"/>
			</g>
		</g>
	</g>
	<g>
		<g>
			<path style="fill:#F05757;" d="M587.079,166.701c0,0-6.772-1.458-7.619-6.161c-0.846-4.703,4.045-5.832,4.421-9.594
				c0.376-3.763,0.293-12.981,13.174-11.005c12.881,1.975,14.623,15.014,24.827,14.109c18.029-1.599,29.854,6.619,31.829,21.011
				c1.975,14.391-9.348,23.669-21.2,22.634c-11.852-1.035-23.352-12.994-23.352-12.994L587.079,166.701z"/>
			<g>
				<path style="fill:#F2A887;" d="M606.863,190.075l-5.33-10.284c0,0-11.476,6.271-15.05-4.39l-2.165-0.368
					c0,0,1.238-3.207,1.67-5.715c0.432-2.508-0.508-7.4-0.508-7.4s3.951-1.238,5.079-3.12c1.129-1.881,6.114-0.894,6.255,1.646
					c0.141,2.54,3.339,2.634,3.339,2.634s1.693,4.656,3.621,3.715c1.928-0.941-0.894-3.386,0.894-6.255
					c1.787-2.869,7.995-1.834,8.607,2.822c0.611,4.656-2.681,7.713-5.879,6.961l7.995,15.238L606.863,190.075z"/>
				
					<linearGradient id="SVGID_00000137097201407896290500000016422677593156457131_" gradientUnits="userSpaceOnUse" x1="601.4525" y1="178.6879" x2="605.5912" y2="179.8794">
					<stop  offset="0" style="stop-color:#000000"/>
					<stop  offset="0.8665" style="stop-color:#000000;stop-opacity:0"/>
				</linearGradient>
				<path style="opacity:0.45;fill:url(#SVGID_00000137097201407896290500000016422677593156457131_);" d="M601.533,179.791
					l2.054,3.963c2.376-2.775,2.728-8.117,2.728-8.117S604.574,178.505,601.533,179.791z"/>
			</g>
			
				<path style="fill:none;stroke:#423F63;stroke-width:0.4755;stroke-linecap:round;stroke-linejoin:round;stroke-miterlimit:10;" d="
				M589.148,166.701c0,0,1.834-2.54,4.186-0.47"/>
			<path style="fill:#EF8C89;" d="M597.413,174.665c0-2.017-1.635-3.653-3.653-3.653c-2.017,0-3.653,1.635-3.653,3.653
				c0,2.017,1.635,3.653,3.653,3.653C595.778,178.317,597.413,176.682,597.413,174.665z"/>
			<g>
				
					<path style="fill:none;stroke:#423F63;stroke-width:0.4755;stroke-linecap:round;stroke-linejoin:round;stroke-miterlimit:10;" d="
					M606.738,163.706c0,0,1.599-1.944,3.731-1.286"/>
				
					<path style="fill:none;stroke:#423F63;stroke-width:0.4755;stroke-linecap:round;stroke-linejoin:round;stroke-miterlimit:10;" d="
					M609.058,165.87c0,0,0.469-1.623-0.612-3.367"/>
			</g>
		</g>
		<g>
			<path style="fill:#F2A887;" d="M661.575,410.319L661.575,410.319c-2.932-4.361-6.896-10.794-10.986-19.022l-8.212-0.337
				l-3.953,7.975c4.505,6.41,9.546,12.866,15.209,19.303l7.086-2.728L661.575,410.319z"/>
			<path style="fill:#423F63;" d="M650.589,391.297c-10.747-21.621-22.346-55.635-18.276-97.064l-30.664-7.494
				c0,0-4.008,54.161,36.776,112.196L650.589,391.297z"/>
			
				<linearGradient id="SVGID_00000029743694205475998870000013886728262533761976_" gradientUnits="userSpaceOnUse" x1="615.4233" y1="303.9565" x2="638.4998" y2="362.9022">
				<stop  offset="0" style="stop-color:#000000"/>
				<stop  offset="0.8665" style="stop-color:#000000;stop-opacity:0"/>
			</linearGradient>
			<path style="opacity:0.45;fill:url(#SVGID_00000029743694205475998870000013886728262533761976_);" d="M632.312,294.233
				l-30.664-7.494c0,0-2.695,36.508,18.907,81.694c3.894-2.725,10.092-7.508,16.326-14.161
				C632.509,336.965,630.106,316.692,632.312,294.233z"/>
			<path style="fill:#423F63;" d="M661.575,410.319l-7.942,7.919l-3.449,12.134l16.179-13.451
				C666.363,416.922,664.472,414.628,661.575,410.319z"/>
		</g>
		<g>
			<path style="fill:#83D6D6;" d="M608.306,184.373c-10.891,7.363-27.352,26.458-61.779,39.533l0.941,7.901
				c0,0,35.054-1.787,61.767-16.163L608.306,184.373z"/>
			
				<linearGradient id="SVGID_00000088132045668500717700000000064351487012703418_" gradientUnits="userSpaceOnUse" x1="603.027" y1="203.3006" x2="579.8877" y2="208.7562">
				<stop  offset="0" style="stop-color:#000000"/>
				<stop  offset="0.8665" style="stop-color:#000000;stop-opacity:0"/>
			</linearGradient>
			<path style="opacity:0.45;fill:url(#SVGID_00000088132045668500717700000000064351487012703418_);" d="M584.704,225.303
				c8.167-2.322,16.706-5.447,24.532-9.659l-0.929-31.271c-6.015,4.067-13.738,11.714-25.24,19.947
				C583.139,209.356,583.531,216.378,584.704,225.303z"/>
		</g>
		<g>
			<path style="fill:#F2A887;" d="M599.485,395.193l-7.155,1.991c-0.132,8.411-0.194,16.936-0.166,25.471l4.781,2.167l5.324-1.888
				c0,0-0.268-9.984,1.531-24.548L599.485,395.193z"/>
			<path style="fill:#423F63;" d="M649.102,263.532L649.102,263.532h-28.077l-22.199,7.405c0,0-5.452,59.517-6.497,126.248
				l11.471,1.202c2.524-20.431,9.121-49.88,26.255-73.458C643.932,305.832,648.609,283.82,649.102,263.532z"/>
			<polygon style="fill:#423F63;" points="581.895,430.372 603.153,430.372 602.269,422.935 592.164,422.656 			"/>
			<g>
				
					<path style="fill:none;stroke:#F9F9F9;stroke-width:0.919;stroke-linecap:round;stroke-linejoin:round;stroke-miterlimit:10;" d="
					M601.178,274.824c0,0,25.491-0.397,43.551-5.476"/>
				
					<path style="fill:none;stroke:#F9F9F9;stroke-width:0.919;stroke-linecap:round;stroke-linejoin:round;stroke-miterlimit:10;" d="
					M606.069,272.086c0,0-3.574,15.97,8.277,14.653"/>
			</g>
		</g>
		<g>
			
				<rect x="468.697" y="143.399" transform="matrix(-1.836970e-16 1 -1 -1.836970e-16 705.6108 -315.5882)" style="fill:#D3EADD;" width="83.805" height="103.224"/>
			<path style="fill:#60BEC8;" d="M503.384,211.302c0,0,21.084-30.1,58.827-22.324v47.936h-58.827V211.302z"/>
			<path style="fill:#1F6B7D;" d="M458.988,215.645c0,0,42.404-38.456,103.224,2.43v18.84H458.988V215.645z"/>
			<circle style="fill:#F27F97;" cx="487.08" cy="181.847" r="10.286"/>
		</g>
		<g>
			<path style="fill:#83D6D6;" d="M605.097,186.093c-15.489,13.639-6.271,84.844-6.271,84.844s26.476-1.551,50.276-7.405
				c0.55-22.616-4.099-43.09-7.008-54.99C636.576,185.968,617.377,175.28,605.097,186.093z"/>
			
				<linearGradient id="SVGID_00000096023548214931822510000002586890564459098545_" gradientUnits="userSpaceOnUse" x1="603.3629" y1="221.6436" x2="615.9044" y2="228.9177">
				<stop  offset="0" style="stop-color:#000000"/>
				<stop  offset="0.8665" style="stop-color:#000000;stop-opacity:0"/>
			</linearGradient>
			<path style="opacity:0.45;fill:url(#SVGID_00000096023548214931822510000002586890564459098545_);" d="M622.557,199.038
				c0.008-8.305-29.223,7.999-25.578,10.77c-1.491,13.953-0.816,30.795,0.112,43.268
				C609.012,249.648,622.523,232.938,622.557,199.038z"/>
		</g>
		<g>
			<path style="fill:#F2A887;" d="M537.211,236.914h-4.484c0,0-3.543-8.811-4.923-8.372c-1.38,0.439-0.423,6.068-0.423,6.068
				s-4.719-8.044-6.068-7.385c-1.348,0.659,0.376,5.644,0.376,5.644s-3.606-2.853-4.515-2.383c-0.909,0.47,1.348,4.546,1.348,4.546
				s-2.258-1.003-2.728,0.345c-0.47,1.348,6.177,10.77,16.947,10.582c0,0,4.536,1.719,12.73,2.519l3.837-3.895l-4.574-7.012
				c-2.449,0.662-5.013,1.294-7.713,1.889C537.023,239.461,537.337,238.513,537.211,236.914z"/>
			<path style="fill:#83D6D6;" d="M585.747,243.937c32.545-9.783,37.562-35.869,36.81-44.899
				c-0.753-9.03-10.786-22.763-20.694-8.842c-8.008,11.252-10.992,34.904-57.128,47.375l0.737,10.907
				C554.685,249.378,568.522,249.115,585.747,243.937z"/>
		</g>
	</g>
</g>
<g id="DESIGNED_BY_FREEPIK">
	<g>
		<g id="XMLID_319_">
			<g id="XMLID_338_">
				<path id="XMLID_346_" style="fill:#1C262D;" d="M385.104,465.465c-0.432,0.443-0.803,0.931-1.108,1.453l-0.465-0.241
					c-0.067-0.298-0.349-0.503-0.659-0.466c-0.331,0.039-0.568,0.339-0.529,0.67c0.039,0.331,0.339,0.568,0.67,0.529
					c0.065-0.008,0.127-0.026,0.183-0.052l0.452,0.234c-0.251,0.554-0.433,1.139-0.539,1.744l0.747,0.132
					c0.23-1.306,0.85-2.507,1.792-3.473L385.104,465.465z"/>
				<path id="XMLID_345_" style="fill:#1C262D;" d="M390.592,463.163c-0.171,0-0.341,0.006-0.51,0.017l-0.074-0.626
					c0.188-0.149,0.296-0.389,0.266-0.645c-0.046-0.393-0.402-0.674-0.795-0.628c-0.393,0.046-0.674,0.402-0.628,0.795
					c0.03,0.254,0.189,0.461,0.405,0.564l0.073,0.624c-0.714,0.116-1.403,0.332-2.06,0.646l0.327,0.684
					c0.934-0.447,1.942-0.673,2.995-0.673c0.496,0,0.993,0.053,1.475,0.158l0.161-0.741
					C391.692,463.222,391.142,463.163,390.592,463.163z"/>
				<path id="XMLID_344_" style="fill:#1C262D;" d="M397.194,465.711c0.331-0.04,0.566-0.341,0.526-0.672
					c-0.04-0.331-0.341-0.566-0.672-0.526c-0.309,0.038-0.535,0.304-0.53,0.609l-0.416,0.363c-0.418-0.43-0.89-0.813-1.408-1.139
					l-0.404,0.641c1.134,0.715,2.021,1.726,2.563,2.925l0.691-0.313c-0.251-0.554-0.568-1.072-0.942-1.545l0.402-0.351
					C397.065,465.716,397.129,465.719,397.194,465.711z"/>
				<path id="XMLID_343_" style="fill:#1C262D;" d="M390.044,473.372c-0.386,0.023-0.775,0.035-1.157,0.035
					c-0.88,0-1.733-0.061-2.478-0.179c-0.39-0.062-0.846-0.155-1.27-0.292c1.046,1.861,3.069,3.125,5.388,3.125
					c2.855,0,5.262-1.916,5.95-4.504c-0.682,0.449-1.505,0.825-2.459,1.123C392.839,473.047,391.464,473.286,390.044,473.372z"/>
				<path id="XMLID_339_" style="fill:#1C262D;" d="M390.592,464.68c-3.352,0-6.08,2.666-6.08,5.943
					c0,0.426,0.046,0.849,0.137,1.261c0.673,0.483,2.706,0.89,5.348,0.731c2.879-0.173,5.297-0.957,6.672-2.159
					c-0.005-0.195-0.021-0.39-0.045-0.582C396.244,466.913,393.65,464.68,390.592,464.68z M388.432,471.194
					c-1.02,0-1.85-0.83-1.85-1.85c0-1.02,0.83-1.85,1.85-1.85c1.02,0,1.85,0.83,1.85,1.85
					C390.282,470.365,389.452,471.194,388.432,471.194z M393.17,470.286c-0.75,0-1.36-0.61-1.36-1.36s0.61-1.361,1.36-1.361
					c0.75,0,1.361,0.61,1.361,1.361S393.92,470.286,393.17,470.286z"/>
			</g>
			<path id="XMLID_336_" style="fill:#1C262D;" d="M406.595,466.547c-0.295-0.116-0.805-0.309-1.382-0.237
				c-0.551,0.069-0.844,0.341-0.844,1.007v0.866h2.228v1.717h-2.228v5.455h-1.932v-5.455h-1.34v-1.717h1.34v-0.888
				c0-1.68,0.896-2.783,2.568-2.783c0.643,0,1.157,0.122,1.59,0.308L406.595,466.547z"/>
			<path id="XMLID_334_" style="fill:#1C262D;" d="M411.298,469.879c-0.177-0.03-0.358-0.046-0.526-0.046
				c-0.896,0-1.51,0.548-1.51,1.614v3.908h-1.932v-7.172h1.873v0.785c0.451-0.673,1.14-0.977,2.021-0.977
				c0.414,0,0.848,0.128,1.094,0.337L411.298,469.879z"/>
			<path id="XMLID_331_" style="fill:#1C262D;" d="M418.965,471.757c0,0.222-0.015,0.489-0.037,0.651h-5.085
				c0.207,1.036,0.933,1.488,1.843,1.488c0.622,0,1.295-0.252,1.813-0.688l1.132,1.243c-0.814,0.748-1.85,1.088-3.057,1.088
				c-2.198,0-3.723-1.495-3.723-3.753c0-2.258,1.48-3.797,3.627-3.797C417.544,467.99,418.958,469.522,418.965,471.757z
				 M413.851,471.091h3.175c-0.177-0.918-0.733-1.436-1.562-1.436C414.554,469.655,414.021,470.203,413.851,471.091z"/>
			<path id="XMLID_328_" style="fill:#1C262D;" d="M426.618,471.757c0,0.222-0.015,0.489-0.037,0.651h-5.085
				c0.207,1.036,0.933,1.488,1.843,1.488c0.622,0,1.295-0.252,1.813-0.688l1.132,1.243c-0.814,0.748-1.85,1.088-3.057,1.088
				c-2.198,0-3.723-1.495-3.723-3.753c0-2.258,1.48-3.797,3.627-3.797C425.197,467.99,426.611,469.522,426.618,471.757z
				 M421.504,471.091h3.175c-0.178-0.918-0.733-1.436-1.562-1.436C422.207,469.655,421.674,470.203,421.504,471.091z"/>
			<path id="XMLID_325_" style="fill:#1C262D;" d="M434.964,471.764c0,2.154-1.495,3.775-3.471,3.775
				c-0.962,0-1.643-0.378-2.109-0.933v3.708h-1.924v-10.133h1.887v0.792c0.466-0.585,1.155-0.984,2.139-0.984
				C433.469,467.99,434.964,469.61,434.964,471.764z M429.287,471.764c0,1.132,0.747,1.976,1.843,1.976
				c1.14,0,1.85-0.881,1.85-1.976c0-1.095-0.71-1.976-1.85-1.976C430.035,469.788,429.287,470.632,429.287,471.764z"/>
			<path id="XMLID_322_" style="fill:#1C262D;" d="M438.068,465.836c0,0.696-0.54,1.229-1.236,1.229
				c-0.696,0-1.229-0.533-1.229-1.229c0-0.696,0.533-1.243,1.229-1.243C437.527,464.592,438.068,465.14,438.068,465.836z
				 M437.809,475.354h-1.932v-7.172h1.932V475.354z"/>
			<path id="XMLID_320_" style="fill:#1C262D;" d="M441.032,470.736l2.701-2.554h2.368l-3.479,3.375l3.501,3.797h-2.376
				l-2.716-2.901v2.901H439.1v-10.658h1.932V470.736z"/>
		</g>
		<g>
			<path style="fill:#1C262D;" d="M309.412,475.289v-1.055c-0.527,0.718-1.391,1.23-2.387,1.23c-1.846,0-3.149-1.406-3.149-3.706
				c0-2.256,1.289-3.721,3.149-3.721c0.952,0,1.816,0.469,2.387,1.245v-3.765h1.099v9.77H309.412z M309.412,473.37v-3.208
				c-0.395-0.615-1.245-1.143-2.124-1.143c-1.421,0-2.27,1.172-2.27,2.739c0,1.567,0.85,2.724,2.27,2.724
				C308.168,474.483,309.017,473.986,309.412,473.37z"/>
			<path style="fill:#1C262D;" d="M311.932,471.744c0-2.051,1.465-3.706,3.486-3.706c2.139,0,3.398,1.67,3.398,3.794v0.279h-5.727
				c0.088,1.333,1.026,2.446,2.549,2.446c0.806,0,1.626-0.322,2.182-0.894l0.527,0.718c-0.703,0.703-1.655,1.084-2.812,1.084
				C313.44,475.465,311.932,473.956,311.932,471.744z M315.404,468.947c-1.509,0-2.256,1.274-2.315,2.358h4.643
				C317.718,470.25,317.015,468.947,315.404,468.947z"/>
			<path style="fill:#1C262D;" d="M319.607,474.351l0.571-0.791c0.469,0.542,1.362,1.011,2.329,1.011c1.084,0,1.67-0.513,1.67-1.216
				c0-1.714-4.38-0.659-4.38-3.281c0-1.098,0.952-2.036,2.636-2.036c1.201,0,2.051,0.454,2.622,1.026l-0.513,0.762
				c-0.424-0.513-1.201-0.894-2.109-0.894c-0.967,0-1.567,0.483-1.567,1.113c0,1.552,4.38,0.527,4.38,3.281
				c0,1.187-0.952,2.138-2.783,2.138C321.306,475.465,320.325,475.113,319.607,474.351z"/>
			<path style="fill:#1C262D;" d="M326.477,466.471c0-0.41,0.337-0.747,0.732-0.747c0.41,0,0.747,0.337,0.747,0.747
				c0,0.41-0.337,0.732-0.747,0.732C326.814,467.203,326.477,466.881,326.477,466.471z M326.667,475.289v-7.075h1.099v7.075H326.667
				z"/>
			<path style="fill:#1C262D;" d="M329.582,477.105l0.556-0.82c0.586,0.703,1.289,0.967,2.3,0.967c1.172,0,2.27-0.571,2.27-2.124
				v-1.011c-0.513,0.718-1.377,1.26-2.373,1.26c-1.845,0-3.149-1.377-3.149-3.662c0-2.27,1.289-3.677,3.149-3.677
				c0.952,0,1.802,0.469,2.373,1.245v-1.069h1.099v6.87c0,2.344-1.641,3.076-3.369,3.076
				C331.237,478.16,330.417,477.926,329.582,477.105z M334.709,473.253v-3.091c-0.381-0.615-1.23-1.143-2.109-1.143
				c-1.421,0-2.27,1.128-2.27,2.695c0,1.553,0.849,2.695,2.27,2.695C333.478,474.41,334.328,473.868,334.709,473.253z"/>
			<path style="fill:#1C262D;" d="M342.413,475.289v-4.629c0-1.245-0.63-1.641-1.582-1.641c-0.865,0-1.685,0.527-2.095,1.099v5.17
				h-1.099v-7.075h1.099v1.025c0.498-0.586,1.465-1.201,2.519-1.201c1.48,0,2.256,0.747,2.256,2.285v4.966H342.413z"/>
			<path style="fill:#1C262D;" d="M344.932,471.744c0-2.051,1.465-3.706,3.486-3.706c2.138,0,3.398,1.67,3.398,3.794v0.279h-5.727
				c0.088,1.333,1.025,2.446,2.549,2.446c0.806,0,1.626-0.322,2.183-0.894l0.527,0.718c-0.703,0.703-1.655,1.084-2.812,1.084
				C346.441,475.465,344.932,473.956,344.932,471.744z M348.404,468.947c-1.509,0-2.256,1.274-2.314,2.358h4.643
				C350.718,470.25,350.015,468.947,348.404,468.947z"/>
			<path style="fill:#1C262D;" d="M358.35,475.289v-1.055c-0.527,0.718-1.392,1.23-2.388,1.23c-1.846,0-3.149-1.406-3.149-3.706
				c0-2.256,1.289-3.721,3.149-3.721c0.952,0,1.817,0.469,2.388,1.245v-3.765h1.098v9.77H358.35z M358.35,473.37v-3.208
				c-0.396-0.615-1.245-1.143-2.124-1.143c-1.421,0-2.27,1.172-2.27,2.739c0,1.567,0.849,2.724,2.27,2.724
				C357.105,474.483,357.954,473.986,358.35,473.37z"/>
			<path style="fill:#1C262D;" d="M364.692,475.289v-9.77h1.099v3.765c0.572-0.776,1.421-1.245,2.388-1.245
				c1.845,0,3.149,1.465,3.149,3.721c0,2.299-1.304,3.706-3.149,3.706c-0.996,0-1.86-0.513-2.388-1.23v1.055H364.692z
				 M367.9,474.483c1.436,0,2.286-1.157,2.286-2.724c0-1.568-0.85-2.739-2.286-2.739c-0.864,0-1.728,0.527-2.109,1.143v3.208
				C366.171,473.986,367.036,474.483,367.9,474.483z"/>
			<path style="fill:#1C262D;" d="M372.529,477.061c0.161,0.073,0.425,0.117,0.601,0.117c0.483,0,0.806-0.161,1.055-0.747
				l0.469-1.069l-2.959-7.148h1.187l2.358,5.8l2.344-5.8h1.201l-3.545,8.51c-0.425,1.025-1.143,1.421-2.08,1.435
				c-0.234,0-0.601-0.044-0.806-0.103L372.529,477.061z"/>
		</g>
	</g>
</g>
</svg>