<?xml version="1.0" standalone="no"?>
<!DOCTYPE svg PUBLIC "-//W3C//DTD SVG 20010904//EN"
 "http://www.w3.org/TR/2001/REC-SVG-20010904/DTD/svg10.dtd">
<svg version="1.0" xmlns="http://www.w3.org/2000/svg"
 width="612.000000pt" height="612.000000pt" viewBox="0 0 612.000000 612.000000"
 preserveAspectRatio="xMidYMid meet">
<metadata>
Created by potrace 1.14, written by Peter Selinger 2001-2017
</metadata>
<g transform="translate(0.000000,612.000000) scale(0.100000,-0.100000)"
fill="#000000" stroke="none">
<path d="M3636 6005 c-29 -26 -45 -34 -65 -31 -125 20 -160 24 -261 33 -148
12 -455 6 -560 -11 -14 -3 -47 -7 -75 -10 -27 -3 -66 -10 -85 -14 -19 -5 -38
-9 -43 -10 -25 -3 -124 -24 -137 -29 -8 -3 -18 -6 -22 -5 -3 1 -28 -5 -55 -13
-26 -8 -70 -17 -98 -20 -57 -7 -77 -10 -160 -26 -75 -14 -89 -17 -92 -19 -2
-2 -6 -3 -10 -4 -5 -1 -33 -9 -63 -18 -30 -9 -68 -19 -85 -21 -70 -11 -240
-106 -295 -167 -8 -9 -23 -21 -33 -26 -24 -14 -223 -210 -337 -334 -117 -128
-103 -113 -185 -185 -131 -114 -245 -226 -379 -370 l-37 -40 47 90 c26 50 56
102 66 117 10 14 18 29 18 33 0 4 38 84 85 177 79 157 84 173 78 211 -4 23 -6
45 -5 50 1 4 -5 7 -13 7 -20 0 -85 -32 -85 -42 0 -4 -5 -8 -11 -8 -16 0 -158
-108 -196 -150 -18 -19 -35 -43 -39 -52 -3 -10 -10 -18 -15 -18 -5 0 -9 -5 -9
-10 0 -6 -33 -77 -73 -158 -39 -81 -79 -165 -88 -187 -50 -122 -68 -177 -73
-211 -2 -22 -9 -52 -15 -67 -6 -16 -11 -40 -11 -53 0 -14 -4 -23 -9 -19 -10 6
-26 -37 -37 -100 -4 -22 -10 -47 -15 -56 -4 -9 -10 -27 -13 -40 -2 -13 -16
-76 -31 -139 -18 -76 -28 -149 -30 -215 -1 -60 -9 -122 -20 -155 -11 -35 -19
-100 -21 -180 -2 -69 -6 -138 -9 -155 -4 -28 -11 -79 -21 -170 -8 -68 -13
-389 -6 -399 3 -6 7 -17 8 -26 7 -67 16 -139 20 -160 3 -14 7 -38 10 -55 22
-135 26 -153 54 -270 11 -49 22 -99 24 -110 9 -48 52 -157 94 -240 65 -127
209 -359 250 -403 6 -8 17 -23 24 -35 13 -25 114 -158 198 -262 78 -96 201
-217 285 -281 39 -29 108 -90 155 -135 47 -45 105 -98 130 -117 25 -20 50 -41
55 -47 6 -7 25 -19 43 -29 17 -9 32 -21 32 -26 0 -6 5 -10 12 -10 6 0 19 -6
27 -14 43 -38 280 -159 411 -210 52 -21 136 -57 185 -81 124 -59 274 -110 444
-151 137 -33 155 -35 323 -36 105 -1 178 -5 178 -10 0 -11 419 -5 460 6 14 4
79 11 145 16 66 5 129 11 140 14 257 54 490 145 805 312 19 11 37 22 38 27 2
4 8 7 14 7 24 0 365 238 426 298 10 9 37 33 61 52 23 19 54 45 69 58 27 23
138 92 149 92 9 0 101 74 167 135 49 45 204 247 280 365 106 165 97 149 161
280 31 63 61 123 66 132 5 10 9 26 9 36 0 10 3 22 7 26 4 3 8 16 10 26 2 11
12 47 23 79 10 32 22 71 24 88 3 16 12 48 20 71 8 23 19 65 25 94 6 29 12 62
15 74 10 50 16 146 23 389 13 429 9 641 -12 740 -6 26 -14 72 -20 115 -3 19
-10 53 -15 75 -6 22 -12 51 -14 65 -3 14 -5 25 -7 25 -3 0 -9 41 -18 130 -12
137 -77 344 -162 520 -23 50 -43 93 -43 97 -1 4 -7 13 -13 19 -7 7 -13 16 -13
21 0 4 -11 31 -24 60 -13 29 -36 82 -50 118 -16 39 -44 83 -70 110 -24 25 -52
60 -62 78 -10 17 -22 32 -26 32 -4 0 -8 6 -8 13 0 11 -92 137 -157 215 -80 95
-268 289 -324 334 -19 14 -45 36 -59 47 -34 28 -40 33 -82 65 -21 16 -38 33
-38 39 0 12 -11 20 -120 95 -74 51 -296 169 -340 181 -8 2 -53 17 -100 34
-102 35 -277 47 -317 21 -25 -16 -30 -43 -11 -62 14 -14 -3 -17 -17 -3 -11 9
-174 63 -240 79 -22 5 -47 12 -55 16 -10 4 -29 -6 -54 -29z m439 -146 c-11
-18 -36 -9 -45 17 -14 37 -13 38 20 14 17 -12 28 -26 25 -31z"/>
</g>
</svg>
